<mxfile host="app.diagrams.net" modified="2024-04-23T07:45:34.442Z" agent="Mozilla/5.0 (Windows NT 10.0; Win64; x64) AppleWebKit/537.36 (KHTML, like Gecko) Chrome/124.0.0.0 Safari/537.36" etag="qLBVbY5pQHSfcBBc-Vbh" version="23.1.2" type="github">
  <diagram name="Page-1" id="MoXZPC3fxXcZ7ulJlMtk">
    <mxGraphModel dx="2963" dy="1683" grid="1" gridSize="10" guides="1" tooltips="1" connect="1" arrows="1" fold="1" page="1" pageScale="1" pageWidth="850" pageHeight="1100" math="0" shadow="0">
      <root>
        <mxCell id="0" />
        <mxCell id="1" parent="0" />
        <mxCell id="Kz2rpot-8Fy41TLEzBol-1" value="" style="strokeWidth=2;html=1;shape=mxgraph.flowchart.direct_data;whiteSpace=wrap;strokeColor=#000000;fillColor=#FF8000;" vertex="1" parent="1">
          <mxGeometry x="80" y="455" width="420" height="140" as="geometry" />
        </mxCell>
        <mxCell id="Kz2rpot-8Fy41TLEzBol-2" value="&lt;b style=&quot;border-color: var(--border-color);&quot;&gt;&lt;font style=&quot;border-color: var(--border-color); font-size: 20px;&quot;&gt;Kafka Broker&lt;/font&gt;&lt;/b&gt;" style="text;html=1;align=center;verticalAlign=middle;resizable=0;points=[];autosize=1;strokeColor=none;fillColor=none;" vertex="1" parent="1">
          <mxGeometry x="220" y="395" width="150" height="40" as="geometry" />
        </mxCell>
        <mxCell id="Kz2rpot-8Fy41TLEzBol-8" value="" style="group" vertex="1" connectable="0" parent="1">
          <mxGeometry x="230" y="505" width="190" height="50" as="geometry" />
        </mxCell>
        <mxCell id="Kz2rpot-8Fy41TLEzBol-4" value="5" style="whiteSpace=wrap;html=1;aspect=fixed;" vertex="1" parent="Kz2rpot-8Fy41TLEzBol-8">
          <mxGeometry width="43.75" height="43.75" as="geometry" />
        </mxCell>
        <mxCell id="Kz2rpot-8Fy41TLEzBol-5" value="3" style="whiteSpace=wrap;html=1;aspect=fixed;" vertex="1" parent="Kz2rpot-8Fy41TLEzBol-8">
          <mxGeometry x="47.5" width="43.75" height="43.75" as="geometry" />
        </mxCell>
        <mxCell id="Kz2rpot-8Fy41TLEzBol-6" value="2" style="whiteSpace=wrap;html=1;aspect=fixed;" vertex="1" parent="Kz2rpot-8Fy41TLEzBol-8">
          <mxGeometry x="95" width="43.75" height="43.75" as="geometry" />
        </mxCell>
        <mxCell id="Kz2rpot-8Fy41TLEzBol-7" value="1" style="whiteSpace=wrap;html=1;aspect=fixed;" vertex="1" parent="Kz2rpot-8Fy41TLEzBol-8">
          <mxGeometry x="142.5" width="43.75" height="43.75" as="geometry" />
        </mxCell>
        <mxCell id="Kz2rpot-8Fy41TLEzBol-16" style="edgeStyle=orthogonalEdgeStyle;rounded=0;orthogonalLoop=1;jettySize=auto;html=1;entryX=0;entryY=0.5;entryDx=0;entryDy=0;dashed=1;" edge="1" parent="1" source="Kz2rpot-8Fy41TLEzBol-12" target="Kz2rpot-8Fy41TLEzBol-4">
          <mxGeometry relative="1" as="geometry" />
        </mxCell>
        <mxCell id="Kz2rpot-8Fy41TLEzBol-12" value="n" style="whiteSpace=wrap;html=1;aspect=fixed;" vertex="1" parent="1">
          <mxGeometry x="90" y="505" width="43.75" height="43.75" as="geometry" />
        </mxCell>
        <mxCell id="Kz2rpot-8Fy41TLEzBol-17" value="&lt;span style=&quot;border-color: var(--border-color);&quot;&gt;&lt;font style=&quot;border-color: var(--border-color); font-size: 15px;&quot;&gt;&lt;b&gt;Topic: &lt;/b&gt;server_metrics&lt;/font&gt;&lt;/span&gt;" style="text;html=1;align=center;verticalAlign=middle;resizable=0;points=[];autosize=1;strokeColor=none;fillColor=none;" vertex="1" parent="1">
          <mxGeometry x="90" y="465" width="170" height="30" as="geometry" />
        </mxCell>
        <mxCell id="Kz2rpot-8Fy41TLEzBol-20" value="" style="shape=image;verticalLabelPosition=bottom;labelBackgroundColor=default;verticalAlign=top;aspect=fixed;imageAspect=0;image=data:image/png,iVBORw0KGgoAAAANSUhEUgAAAOEAAADhCAMAAAAJbSJIAAAAflBMVEX///8AAADa2trz8/O8vLympqbj4+Pr6+vExMTg4ODv7+/8/Pz29vbPz8+IiIjm5uZwcHAqKiq1tbWvr6+ZmZmCgoLJycleXl5LS0s3NzdFRUV2dnZSUlIcHBy/v79YWFiRkZFnZ2cTExMmJiY+Pj6fn58wMDAYGBgODg6EhITgaYHmAAALpklEQVR4nN1d2UIyOwwGlB1kBxGXQQX93/8FD+hBmWxNZkln/G4NmNA2e9NGoyi0Fneb949m83W7WbXHhX1tVXC7bwI8LkaxmSoO3RUU7xvTfmzOisHNlJbvjJdObO4KwIGX74xVbP7yYrCVBWw2P1uxecyFXki+M9qxucyBwA6t/05NdAKelGpsTjNiqRWwriLe6gVsNpPY3GZAxyJgs9mLza8dTzYJmzexGbbin1HA5ktsjo3oWwWs3T59oGSYJb3OYDBZL9+pv37G5tmEMSHB5so96+wIgkU8fu14xPyDmLc/QxRPcXjNhAni/mGIiPaIaB2B1YxA7to9RYXixr03n9kBbSGz/+6hiL5c5gByZ5hsxQjS1cZgLADjbHTUBoR3nlzmATxgvEMGCN8dmcyFo1qBQJXkx2M+ALZvecoWIB34MZkHAwPbgLQmqXCoSiVa4KHWRJmCrSc6Yxv1hq4SgIRHiXafpp178ZgPUH1ItMBFr8kaQr9bogURRk00DXTGhArTEJDWJcMP2Bay9jDrX5d0FIgZtjwl9O/8eMyHO+3euwGEtcm3PQPGHzhCuIQHTy7zAMV9TI4J5avqomiI4J1Up3CP1ucY4hC42STq9aNXSFSbABibuSbhU0PP54SJ4T+McPLOFUTVYpdmiaie6jRpq737P6H+eb9aROtXwUfsvAl/tmqXLJ4q9EwPd66sInl60CR+42O6bLcPO5zuVi3hkCkqP0VpdSBOYgjdwFdKRfMYMkKrH8RS/r5A38pTBFMq9HpRCCQSw98WwdTYytxiVNF90/xG7vYDptxEiJuMMJ0kQie5cBgq3WKOjSq30jC4DMVALaIooHYFz3DPKHc/VXyJNtu02V+9JPvBkCh3Q8zk43MMf8MVIsTQwfbEQGMi00DNIoLt775IDB0DllqvZS5wV6hnLsnmmjPeghlga+8Y0zJQOlpU+0xzE+69gEXib9z1JsPGsPNM7+BYHR29VXo59nPNdQtCgO21aZl/EARliRBEKrWh87BwNgRpEiKSjlYaSO04XXIbN/rjmH6NaKK15dglxD4RpSixzxPrupFdQrQDadOC2q1jtQDaJYTZDi5IhsFjrG1qlhCmzlmnE6VMCuTaArOEUIfwmw9u50j3xcwSQpeWp+wCykjFcrOEwBGSThc4sZFqWGYJgcsuRQ3Af4t0kcosIYgMJX8TOD+RlKlZQhBXSHEWMImboni2wSwhqL5JRRiQf66LhCBJKq3hvJ4SgsBZMgGgphHpsl9KQo1zvE+zLaXtAWlSDMdGDFMFt2fFIoIK3ZtAmqaMkI4aPu9wMD6dB6QEh0tQNbAw5R0D90AT6S8exW5LGB7ypwumulwDxGEgYXonLCSk5Rxq6KLPSpGEgeK284r9xWFbDpNjQsGTYykRniQGtKM8wLcUdyQhqhy41YMHqDWKw4xQIkSejV6dPSRyK8+YbqvDZRwy2gn51CP8MwY6AgqDsaSSdrRwivCC13SIQZ0DJ02q3qEXvF0xJv467/NLOvmmTdX3/7nIN6SbgmRckqH9YDlmu0uWCdN4pEyn5xVQ0zvBiagciMLBx2Oz1W1/cbL+N2wpTgefuoz5DF7wprWgPFwKpNbC9BVQU60Vzx4CmuygAsFJU1dIPAQkW0tzoNfYq2lpr65oZD6EJF7OVlIrok+aVNqj0/a63+12xoudrpPop1ShGwXj5K2x/3+X8vj7dBNxGtsfxahRsU73T7l4cIUCXa6n+RfJFXU3pG/unS6FMc3PMzI6D0RXIMqjG08ucLt8SntcrIoTlhEnZYb8+DfHWhP5/wUNwJ4v0nIPF9ReffC8PEyGdYn0CVrERzbEm7TTNbdN27ePbU9wG8iwUxtVvP190jrrxTJJlofF2r9Lj+BWylR/gepArezwCOpORDDvRXl5lZ2JRd3nCn+K0L+VHadEBL6a/UYsYumsZgNh7lWLQdg592sFOhDXBlTdrHj2WVWnRxC2TfdBnLfySuoagXeb8m4A1lAVnUmLm7mVS4EXP047ehC41KA8TvgAB/2EOMDeibLaDBvvmlU1FzjcUxbyCLemXE6z4u9LmHmXEgaxXE6z4u9rGpzNT3QfxNbisUw+swMHs0pG8U9TUYuf2WvD/VIV9doIz1uVpSXm07uUkOwgoidVoyeR/q5o9ERcxNKwSmWRy+c1G4jFUITARABc2SwGlS4NujXUbfTqDogkmP0IfYbqTKju6D1qAklgx1FVtpAZvWmNe7e9cT/CPUPybrnYC0n25zUT4V8sr93fl4P3XBqytiuIyJXMtnS+vkW1edy53lSjOWY3qlAIJpRNj3wW44R7z75umgV6xlGX4/gLG9Cf1pKo7/3WkWtKm6JtNwpW8lMrQ84suIJf5zPbZbFPZYfpKQss131isgDA0avUJs342hyeW51Oq3fYK8T74vp/p0/XZuU1LkIcZWLGVy+lth/TyRVCw0vz4XFkeL/Nqe6oevPQAE1v0QVOcaWFpaLhNAsz81E8DjUqVoTTWDpLS+g1Rvn3uFdoma3R+6skPlKMB5Pg9YCE6JDR+LzU/OUOti8cHzf33H0AJwntZ/H4G+1N5Nsal6mzwzU5EdPtAqlRo6bPj9Aym1zTjahwyktCm86APzw3p+0Ik3dEktav32jE3o6F2OKkI315jchvjJBW8xz21dP1c9M/OlEkoAf0o2tSFQj6U0g4Iz1ACoemREVy56pHWw7tlkLCDN6g4cIj+DOybzGUhTE75ngjespwbfgkIzSNhYsQxvoOuQCzVS/gQ8K4l883wZxkpFckUgwfFB4yjAt5SljciVQVSI1I0ARyYHNLrarAl02K4diKlG3W9DCA7hXJkIP6lc8NLwSzhIbXroDtjFSdM0sIzEz1pyiZJQS+yh+U8O/vUqAg/6CmMVgLUEiO1I5jllBv8WEWOpLFN0sISyB8jgm63pG8NrOE0PPmnzGBYWhxTJtglhCVW7kPwe0cq7PRLiFKM9FdKGhkdJTXkRpZJETpKHKIF+6hjvF4wBl2CXFBeYuDrgGapeEe4l+QQUKicgjVJJGzjHZpKtVGqqsuUNXW3fWFvw6Rc/wsh/0gnncpR/pzOtfUwcjE+eb2W8junCziRLmA2iJzUYr3LdghFLN3rjATo80/zxsl9plD/m8/dMV64DbkYFmrif5hRbBTJDBezdja4b5Hh4p5PIH3nixPdvkb+0kBb3aZjqL3ISzm3TVNdUf1PcWjqLfzmEZiDO93kIp7/1AYhan/jhJQ4BuWjW64feXeva99bxIw9A4pde8kBf+YsOi3ZBsTyfZP/W9olPAecKPFdT7sY7wrQzfE5HvT+XQcE+xvbw9RbtiU9S73abMupr8/0HY3jzWOiGhVKupt9TMG/fF43Ik5a4k4hcimE/5mVe9VEsBOCKELRiiFFOHh6axAEQVZ+8OH1ZvPzEAxHZM6QfnQSPUGO6C1ZxOYMH0T6a0tO6AxZJcG7tMI7xVnAziGQjckXEQ/HvMBsC04xTBjXd0LwClARSM0UUDDWRNVA8fNSLSGfosKAXorEi0IiSo6iQ4CSChOI92naas7aiAFIOGTRAtCvpqsIZzGItGCxlrvdGBGwCSbFOUA0ppoGsi2sPWgUqrseF0AkPoT+uhgHOzHYz5AX4z3VABhKKVYGcAAmH2VAVYkahMCo9FWjN+G4siaqNIGTugzY3hQKsCXyzxAiTRy4ipqX6jseCgMPOrxAfeW7BGRd3UsD4gaAzDmfZz4Ft27qoG6Arq5Cv461L37ys6aJ0G20MySXmcwmKyX5E1vt4cZi4Ghwn1BfUzFN3QPGF2hNnm2H9iK3LVJQl2BmNkpoU6W4gLTC3MVHckagH42UKxrPLkR6p/4QUXHBiugHGHl8+ZdOVDNxoh1PaIYDILjhl5rksnnEdipPu8Tl4sbdqTCyZGJ0etTArrM67JTp9ljLrjdQ/EeFxGG5JaL1uJu//5xUi3bzapdoeT2f5mThLpLeGQHAAAAAElFTkSuQmCC;" vertex="1" parent="1">
          <mxGeometry x="170" y="390" width="50" height="50" as="geometry" />
        </mxCell>
        <mxCell id="Kz2rpot-8Fy41TLEzBol-21" value="" style="rounded=1;whiteSpace=wrap;html=1;" vertex="1" parent="1">
          <mxGeometry x="650" y="510" width="90" height="60" as="geometry" />
        </mxCell>
        <mxCell id="Kz2rpot-8Fy41TLEzBol-27" style="edgeStyle=orthogonalEdgeStyle;rounded=0;orthogonalLoop=1;jettySize=auto;html=1;entryX=0;entryY=0.5;entryDx=0;entryDy=0;" edge="1" parent="1" source="Kz2rpot-8Fy41TLEzBol-22" target="Kz2rpot-8Fy41TLEzBol-26">
          <mxGeometry relative="1" as="geometry" />
        </mxCell>
        <mxCell id="Kz2rpot-8Fy41TLEzBol-22" value="" style="image;aspect=fixed;html=1;points=[];align=center;fontSize=12;image=img/lib/azure2/databases/Azure_Database_PostgreSQL_Server.svg;" vertex="1" parent="1">
          <mxGeometry x="850" y="499" width="61.5" height="82" as="geometry" />
        </mxCell>
        <mxCell id="Kz2rpot-8Fy41TLEzBol-24" value="&lt;b style=&quot;border-color: var(--border-color);&quot;&gt;&lt;font style=&quot;border-color: var(--border-color); font-size: 20px;&quot;&gt;PostgreSQL&lt;br style=&quot;border-color: var(--border-color);&quot;&gt;Database&lt;/font&gt;&lt;/b&gt;" style="text;html=1;align=center;verticalAlign=middle;resizable=0;points=[];autosize=1;strokeColor=none;fillColor=none;" vertex="1" parent="1">
          <mxGeometry x="818.28" y="405" width="140" height="60" as="geometry" />
        </mxCell>
        <mxCell id="Kz2rpot-8Fy41TLEzBol-25" value="" style="shape=image;verticalLabelPosition=bottom;labelBackgroundColor=default;verticalAlign=top;aspect=fixed;imageAspect=0;image=data:image/png,iVBORw0KGgoAAAANSUhEUgAAAQ8AAAC6CAMAAACHgTh+AAAA9lBMVEX///8zZ5EAAAAvZZApYo4lYI0eXYstZI8hX4wZW4q2wMsTWYn5+vvy9Peaqrru7/Dm6/DCztqzs7PBxMhvjallhqTX3eJ8mLL7/f/29vfH0dpBQUFtdX3p6uvP19+0u8Lh4eGUl5rg5eo+bJMAFyZITVIgICBRd5mOpLl6l7IAUoSer8DL1d+Ema5bZW/g6PHV1dQnNkKFjZWKi4sqKikABx9MU1oNGyUACRoZKzpxcXE/S1bIyMmkp6pmcHistLtZW10dJi2OkJIAAA4QERF5gYisvMsADxk3PkRKdJhWV1hMXGpgb35zgIs1NTUmLzadp7AAITgrxKp8AAAKLElEQVR4nO2c+V/aShDAl80BIcFwCEqEyKGiUjxbfa1QsT6otn3q+///mTez4chlXy3Y/QTn+4NHIH4yw+zM7MysjBEEQRAEQRAEQRAEQRAEQRAEQRAEQRAEQRAEQRAEQRAEQRAEQRAEQSxE9bhycnJyXJX9HK/NplW1rc3I5VzDKZUct2HDO9xB7ZTP2D0r2RKe8w+wWTo/er+DMn7Yu6g1S7nJdWv78/uZ+Jdbf/EIV9eW1Cd/DVq1iJgfv5QYy0evX356Krp1sIp63S2eXYlrzdXSSP0IhboYbfcbjVajXxrUHj4IOS/wy9HgJG8BuUap+Xk7H7o3VxI3X0t58NehCPI8XIecY2sglPE1ZjFUW0622+2Os5W6+N0+R0+Si7wvoZxxftMXP9mVAuC2piooHTXxW7WSXdtf646dlria2zg0dU3TMrpuautZ1KMwsIqMh18+oI7PqABnvW3oCHxtl7sz6Zz1jAHiqyC/0S4L8e0NU0kJFFXXexhhrldlzQw4/wTfsoqhpmYoqqZnyg5cr7QNVZm/kM4YPdSU256/WzU24MoJxKasXFGWQR2sA4JqWU+FUdvwuXdNJXxdM9AgAndoaReWESjElS3Owgz5jcWsey2ijpQKUveM6HUQXyvAnRt+FZpjUAjEpKQ71RPOIcsox6jDAOPvRq1GoJg9uHc/oJCu+GNDyfIsypBvge+IETtdBk9qxqsD0MtW2EJAf184b8mWaCHynG8zpsYIbORZ9VltpNC7gELK/jvNCstxPpAt0kJAJsZYIcY8VAgZa5mfKgQMyEr5vC3esssvZIu0EJ/5EXzK6Zj14LJqJhJaAmjrkMT6/K3SZmzE38sWaSH2wL4tNUZukG38U/MADIgp+z5PnKlCMvNXtFqQHCD56DM3ZrloEC3aPzePlPAxzPdrJodZapIjLgTIPCvE2IHRYq3ng8sUdCHufMUkXx9Zzi22FhNeYLl0Y3KSiNogxnZm3kfPwXq5TbI+ivxvyEGj+lDX471sFF90UtQqJCBfk+w/inyPsYOoPrRxMJQ+iw4G0p7+IuLLnmyZFkHoYyOqD91hLfzYlbSqxiVrnjnoum52IMRM3pGGny/4lWyZFuFZfeSZY8DWvrPR66239ThL0dv7Tj6fh/S8MlkwKuxpbkTtILE8s17QE4wPvdIPUIgmKArmHhPykwiTGbMq50+SRFkK2/HxRUlZLOsrZdTjFhRcdgoFp8ryE/swKswVu+Xk4mL+kY3kH8q997LT66TVTiG6w1H3YZncZw7ujcPCXB8W1tqSHG69/LQSqfkoHXxxrBpqO/tunAGF3AdXjN5i9UM0kXvY1E7yW7xpyHckS7QYm1/5NctF7QNEc1TdswMIqOHkDNdT1wQ1ZTW9Ps1vMcUXtcckc8dHMRsV1Me68CqZCmjmMM/eBRZMWryeKXcymJBN/A+4j0riS+w1vhuq6nhMN66KUS7reoHZRkQf6VRaEZqbxmvGmpwnvLl9zW9jdipKeh510mlvsxt4Q3uqL/Vgmth71aA72QItSAW7apENv6IEojDuZjqB3Qzs3LyQgzmYpyrdRe98JlugBbE4LzI7vLMP6QMXxUFAH4bD7JA+VNHZSnzL8lQ41P/RRztYB4NYsj+xmJk+8IddfiNbnIUZoQzhHb/ff6S88BpOYiE9QQNJgxo6GJ4gD8lz/kW2OAuzjRllpEIWMghwF6FiquGyKoYc7NJgZMaMtrkCy4XZmKHaoQwVpfPt8tBcxsEYhC62p3lLCa1LH+PeNtF7/Qk3aOShdBw/dV95LOo/UkrGFh4VVSXCtcVKiU/GBDXMGUIOBJ2jT0VoLmEXg5k8FoJwKeki+RjiXjn5wMdaD+9fMQHzNaNiq6m6LZaZIdIX08ZMZiRblmVgYwc3tKVDffhcSgacgxLe42g94UFAH46O5jFaBW+KnPJaOP0M2YfZiqkJpAz0IIrQh5HHTvaRbEmWQxNb2sEtDPqPuYZw9xbTjEEP0s3oLVYwN8QQ2olsSZaDgxG3HkjZRUCZOVCMpeEMVpgNrI+UBvHlsI7mkezGvg+xC+sE/AM4S1+7ksW2eEVUHuPO/0CYhyNbjmUhUvbQgtmfFoS8n+N7dWAgVoExzcad7TfZYiyNPo4F1gMWgA2HacwBZ5mPnaoTBsJYFpzvEecNyVIska9iwQRMQBTQDVxD6Y7flwQxsCdRFmMCKxJcBCOMMKGZOuzct7Azh9X19DOtXKVtsaqLIfsWUlPbzRbqsmVZBhXRRQoWhRT9HbySvTcObeZEZ3In4MiUqAOdjr7viQMRNcmyLIUbDJa9YIqB7QSGRxkgiJSVZ2ZBVGzCtGYnY/7mq7FwBjg2agcWDE6Tlua9x278nHIZy+nW9ujHjx/n1/0c2zxLeMPSoyr2Yus+r2l408Y7o8Ek6+zGDFWJtmZwT7vJ+T9//vmXzjlWyXwhV+/NlkEDwku5Hpuh6rCk9o2OI1q2Vs5xxU1JL7EjnhgzD4JuMvdRqAP8w5qhxe9gTOFq07rW7nTutUMwKfZtRRKRGnbWrEkKosI6sB5AGbc18KZZcB2wQ4lOAaR0HOlXFCWtZkxlA0Pt7ooUQbAKcjGd31dS4CWveK3YwNE41/QUFDMVocGr5Y5+39noVtCNuGBSW7IlWRJNUf0cm3gCKg/2MvTGBO01SFLVVC5OH1iF91HBI3S7Mp79VXjE0Rg2Tplt+PYECSvkm92yrqUUo4MOM8Y+OrPoYjW8w5hNmRIsF3Cpe1WUjGFN9YGxetk8NHTDuPcSs6g+sEp4evVpOBxOzq8fJfvsS4gi5x+8U6ewdkRWZeUdxxUDDJ/j/Ck2LX2ntkerUT6d84TnsZ9KzcfwCfTSewg+UX1kxlgW+/jvv3ffzooNec/9apSmn/XeNn4dNktuwy1+wf9gEKcPSMca/FL2Q78m1eYlyH73ZLHGVfB/GMTpw6iwfrLHs38Buz4ZwnVHOxNd7Bbv4u0Dj3c8yH3cP0rupN/vN8CPbMXpA6cgzleihf1idmP1AenHD/5d9rPJYMgrUX1gV3cr2eP7v0uNHzMn3ILBkvMlP5f9bDL4h7vRDq53nGEVRj5ezBmkqxF96A4Wovuyn00GTV5k9bA+jDwOn63UluVXKfJBZEhV0areaMAbxMGNfNg+2hh3Vqap/yIaGFZDBWWcETlN9umw32bz9irYjkiJ3VxuVUakXswFt7x55Ln7UKvgTpM/n/17DCDgVoMT/V1sLrzN5YLn7I6CPUt9XfTvVmHg9Le4Q09Rnm5hNGONYQX6rZoHls5O4euGqWsZ3Wx3IQvb/P6mah9hHsVOtp7tjh0x89J65DuJPmq7IC7nw/lZwUqN88e3rA7vf4KO+nXLbhXPblZlEGgRSre++nKtIftx5GM9eZ2Zj6Ptlf+/2r9I9fj4+M3mHARBEARBEARBEARBEARBEARBEARBEARBEARBEARBEARBEARBEARBvJD/ACJAv90PtaRrAAAAAElFTkSuQmCC;" vertex="1" parent="1">
          <mxGeometry x="760" y="405" width="72.85" height="50" as="geometry" />
        </mxCell>
        <mxCell id="Kz2rpot-8Fy41TLEzBol-26" value="" style="shape=image;verticalLabelPosition=bottom;labelBackgroundColor=default;verticalAlign=top;aspect=fixed;imageAspect=0;image=data:image/png,iVBORw0KGgoAAAANSUhEUgAAAT4AAACfCAMAAABX0UX9AAABhlBMVEX////xWilBQEI+PT87Ojz5sRL5tBH6txD6uQ/6vA/5rxL5+fnzbCQ1NDb6vg7yaiX2jBv2kRr3lhn2jxv3mhj4ohb1hx3v7+9JSEr3nxb4qhP1hB74oRbzcSNOTU/c3Nz0fh/MzMwwLzL0eSF4d3jyYSeqqqr7xAzxWCZiYmO/vr7xVB7l5eWLiot/f4ApKCv+8++VlZZbWlz7yQv97ObwSgD95t9qaWvyYBSfnp+1tLX2jQDwTxLzd1P1i2vzb0byZjf83dHzahH4spH1fQb+8+b96tP+9M74tqT2mH7ybED3oYr6y7/4r5r6wrHzeln1kHL4qpX1glTzdT4dHB/zbjbxWgT1jWD0fEf2mm71lGj71MT3qYf1ilL0fz76x6/0cgD6v5383sj3ml/6zLP3omz2kkj5tIX3omD6xJv2jzH4s3j82rn4qFf4rWn3nTb4r1T6xIn816n7zpf94bz5wG74qj/5tk37yHf5tz381Y77zHD95LD7yj770WP7yjb93oj+7LsjkiSNAAANPklEQVR4nO2aa0PTyBqA2ya7egwRVNjWW2pjraVpS1tLSy/cKikgiLru6rrIiqi466rclD2wXvCfn5lJmkwmkzTtejbFzvMFSN6ZTh7euTaBAIPBYDAYDAaDwWAwGAwGg8FgMBgMBoPBYDAYDAaD8e0zW/K7BceZheDMit9tOLYIi/Vksr6Y87sdx5PctBIEKLeKfrfkOJKbqgcRyiTz1zmLuj3g747fbTl+LChBA2XJ79YcN4rJpKkvWF/1uz3HjCks+eDwJ/jdoGPFbBBPPuBv2e8WHSusyQfTz+8WHSvGgwTK7eUSvn7OlWaXl2d9a19vs1An9QWVenJycUVfAa4sTivj9brCNiQ2cstT43Z7kKRSH59eKQUWknUFDY31e343ttfI3Z5WFKo8XWF95o7SmlaSkyz9cHL3gvWkizzkzAxIBvt49AOj/8rS1J07U4utaWFlRmknz0q9b4+zVpfuBMfrikZdmVycLU21zTySPt3NCQvJccWSaXBacBvzHPRN+f0kvlCc6TTPmD6MUgf6kgDQv5NJShHlrt9P4gse9QFv9Xrw1vQdwOR0sF4nZ5b6gt9P4gteOi9IueStxYXZUrGYgxTBRH13RrGsCpVFv5/EF4rTbVd39eDiMuWQvrQwhefgeF/uO3KT7vqSyuSC44aitHTLFKj0ZfclD6SIzJtZdj0eLd4zVj1JpR8Popdc9Ckz7TMqt5RUWv768EWEFfqZCrI36cnH6rTuT5nqv3ODku08tMX4ktevNRb1PV4/HlvRFsGwKyZve69jRf9CpN5/3XeRPviNd2APdGBtAOzDrdsyVV+9I3tgDLiFqhnvu+/hcrSFc+dpVLoGq0n23/dwt+vXSJLTnc+hs9eSoKS3r4HT0VgsGu74I3qSos3etQfdHL2vKrDoj+3CwtW4FAlxXChSyEe/hVcW7k0Q9ia62/+jeh64T77hvCTzXAjCcaJYjnX1SRgCIOxrIgs/E/ruO3Xd0urC3R/v3//l4d2FVYqmh8DfhNupvZCQRc2dDj9WiHbf7lScH4P8FO+6jq/BMtF16Vu13PKvP09MaJkKfv788CZ5DlOC/4cfnYfNcJnX8o4XAdrvfCjRZavTcV6rIiR2/y/4GuQeXhs0cUi+lfsPgDozCiq8S5wSPHkweG3CcdyMFnjkTpYyiVQ1Eedl9LeY7arR6RDfSuG4v0NoaRBngpZ8s79MDNqZmHholQWiJm46fEpa4lG25Vu5IlTLsCvzo920WUCZzMuAn1LdVPD1WLGomaAk35NBmj0YPGCxtTowOLhG/xAB5Z5YxjuakArxfCHdTZtTMrQ3mooBfJ6/Hw7gQh7ZAx49oMuDPFjDJ5FfJwYH6B+SEaG9PHE1nJW7G7hg8ondDptflwGchv3U83FjwI3LWAeebQw0qINfDM64fMV2XejOXrjAhbjRnlg2bljs/Gb7XuMmdr+BIP2ZxoW1RuM57UNg1+1ykqCRlriQaP9n+MHTxmWThq3vPjduNxprj28+vfn4198aeBFww/T3pNF4QvmMGOi6XKTLBgrhdJpYGUcjHK3vUiIt96jp6lbIA48t+p4Sd3O/te5cfjGrzyrF2UeXrQKNlM1dbtCm3gxIPr7apiHReDabCgixSiYLaC1Hovl4QZJG4wnwiAK4noGPCvVxoxmEkdPRCiVSqKCq0pVyQSqU87Z5ilp9BwhrlkQi+25LbuOF5U7uKS6wsWZM189o+sLwaQvtGhYb4+VENSKLPEDWthKx8pjIcwBe5POCwPNipKUPLCERY3rpuBEp58MC+CFBV0Jc5MfSee0euJWxZKC1+oAMCnWoL3cV13eVuFtq3SWzMlB6hPt72br8nKYvJlNmXVoUJ+k74hAHt8NCpbWzQLuL0VgERBj6dGRUuBLCIwsoUtPHg/8cj1ViJqCt+pBefQcU169ikKu2m9pd6nzwAitpzLeldYq+BBj65LbHA1Ayp+3qeBFNq2i1o2UZmrkjFn1o7yeKKPvyMmeNDGH6Qq17yFLZyD9b9V3oe4rrW39J3NVurttyz1Z0rdWol5SpAw59otmudMxGVNeHtnGFcrmcaj0eJ0bimUw8IupZaejj49UEAtlDkSEtUj/SMfWhSrOZOMpQYwHgXL1nNp7huXd1nXj2DU3QM4fSL01/69T1ig7sQBFz0MnLPIEoGfr4QiwsCDA4hh6Pq8AJU0jn9cw09GEzbwztnkN5ItLUx0WqcGqIoj/0lbpWfYhWvVdeWnquXYKWX1ccD/E2zaKbbfRJmD4xRMAZ+nijb6FtHi8Z6+oYGu9o+oRRGBkxIqMcR+gz9jbwLz4DfwuPOlfvjeKz9StW5gh9L9BFskeblLCyG84fRGafyGEgfYWAPvZJxsieQmtFbFcSFR30wQ2wNRJNzKY+c7sD19vaGgBVL9Gr94S6OXeFxOogtwmvrbuIeWlU4SKZHPsqPJ55EZhzcJkC9WmZgYjbtrV5ka4vCyMte5CKiOvD1cKmhOAN+67ZrN4L6pzdHqFPfYXEuFSSM+u46BzlOvMaqxr0i7m2HoPJYIlEqWPXhzbAEctjCyHOsnAxb8KmoPNVWD3vUL0HaLl3ce61JaZ4EV51G9UCL8z0c05SJMZpiwr/6WJKj5KNw7v0mJ6UGGgMtelD03DWuiHL8ri+Uas+OBKmZZfqPfD73EU7xNhX/AFe+9OtmudGNXN/OAaF4VDkcEASHuX03mXVh7oysdTOUPXFQvZFOei97vpcq2/PHzR7pAL1FbzmMqgFAs1XRtkXzlFwdOLpp8IpIw3s+kgpLvqI3PakjyzkXV/zByqEqtwmvOaafYHNi3rZi787f0uEprkC7Y4ABq6QjEY8SucljrhcOm/GGplp13mjskv1bfmdru8HYpz7E15741rTplH2leocBVcSMm30y6DpDvVrqz44tnNdTx0Rro2+fzR1vB5y0FezDlB/zIFrQ65VvTH1NZ2jqmhRZT+yQtf1oyxCH1zWipYOn+DpCxe0xLHUXbUuXGj6wJBLVu954XJmyAFi+lTnwLWay7oP6DPKnnPRp+3cbUd+CQ77ro3QhxTgp1xhnqPrq8rEc8N8bKfPrfo2vK456asRAx2S89atLm/60JEf3K7j55XprBjCNhqEPuSAN588Oso7bdpQpKkirH2j7K7PVn3BrL4Nf9bOOTD0xjr+b9SGzg3VXjvUA9kaahU946YPzI/oUEiqtASm8xKyZ6ynCX0oqeAJgvZXSju0ox4ZaENAIUVEuupzq74NzvrOkT0VhZ5xnhTULaPolsvUEYD+tLcKZClTSVQykva+Cx+xLFVwfQEtOWUpn0iA8NYxFEWfEZmxRLrrc6m+HVu1Mw7UiHlW3YJXnc1smEW3XLMPPLOEveOinyrz2DtCNn3aqwQoHoVzDmMf/L5YtEZ60SeURYfq26FuO/sjJDRhZG3Lqf/umhXV3rinXyCcGWudxeseZfybGZs+YGUMi+fFhMTR9QWErGyJrEba6yOr5xOS513H29pZOjVyomhuwdDa9mtNjrq3jVvaxotut/EXiGYjMq+dxgF3kazlS/KYzHEysTVJFfT3ATmej6eFCM+39HGy9YvK1KgRKcfTYKHJt/RxPK4PfojxsVWzkAgKgR9e97w7DvrO1t4Rkeo+Ul3beruzs/N2uIbnp2r5L5DzNoV0Ar5dGgpFpHiV+NYwFpKkCLmzC6fK6GVUKRsTwBQrSWiCjYJfIgkyMq69tgojAzAS6ctKklQ2nVQjkhSKOlQv6dV7YWO4dnaYwtl92+ZrdxhaGtYUDeP9eKdmLew2R5ttjkajHbwYJMBXoT29kOE98p8WAqg7NHuAHVtobnd7C9obPr+/h3dQdZ8out95M44vzW1q/g2T3ReiNjd2dzea1szc81T020Xd2R8+b8ejhKa97Pv/b3t7DvXd+/3zlwgJI+2mUI33dvEeS35TqO9GLlnZb7MERuydP3+JxGviflvsXRqxcGmkvYbdEQrnD/+F1vYeF2wi2vl7R7N36S8vafvt0bT7e+86jO3R7F3Y+7fa22vsjVwgGDnYdYxW35PBwN3BXh/OGy3+IvUB/nLowbsHZOB/D9/1Z7dtoZJKEAe7NivqO1tkv632aDRP0fxdOPX+EDc4f2jXfKqPO61J88IpKsDPwafDvd3dw78P4B82+nKtZ2PeQV87+nOpZ+Pw1HddcOpvv9vdI/zdjb3vmD0N9eD7zmH2WqgnT3Qq78T3bNxroZ7omJMf/G5079A8cbJDTsz73eYeotmpvZMn/G5yL6H+p1NO+93kXkI9TQIEufLR7yb3EupHUs/R0cfrbvqO/G5yT/Hp9HWM05/hxDD/5dNn09d1S8D1L363uKc4wvSc/oi5Uee/fPjw4fDouhXWdy3Mm/o+faGdQRH+jv7tBvY4SMqNz0dUd5BPuL0b7JTPyvyXL/PuTo5uGFxnO47OmTf0sZGvKz581vSxrtslYC1z4wbb7naPOs/sMRgMBoPBYDAYDAaDwWAwGAwGg8FgMBgMBoPBYDAYvcL/ACq1q3egtQPHAAAAAElFTkSuQmCC;clipPath=inset(18% 62.67% 15.33% 4%);" vertex="1" parent="1">
          <mxGeometry x="1080" y="501" width="80" height="80" as="geometry" />
        </mxCell>
        <mxCell id="Kz2rpot-8Fy41TLEzBol-28" value="&lt;span style=&quot;font-size: 20px;&quot;&gt;&lt;b&gt;Grafana&lt;br&gt;&amp;nbsp;XY Chart&amp;nbsp;&lt;br&gt;&lt;/b&gt;&lt;/span&gt;" style="text;html=1;align=center;verticalAlign=middle;resizable=0;points=[];autosize=1;strokeColor=none;fillColor=none;" vertex="1" parent="1">
          <mxGeometry x="1060" y="405" width="120" height="60" as="geometry" />
        </mxCell>
        <mxCell id="Kz2rpot-8Fy41TLEzBol-29" style="edgeStyle=orthogonalEdgeStyle;rounded=0;orthogonalLoop=1;jettySize=auto;html=1;entryX=0.019;entryY=0.506;entryDx=0;entryDy=0;entryPerimeter=0;" edge="1" parent="1" source="Kz2rpot-8Fy41TLEzBol-21" target="Kz2rpot-8Fy41TLEzBol-22">
          <mxGeometry relative="1" as="geometry" />
        </mxCell>
      </root>
    </mxGraphModel>
  </diagram>
</mxfile>
